<?xml version="1.0" encoding="UTF-8" standalone="no"?>
<!DOCTYPE svg PUBLIC "-//W3C//DTD SVG 1.1//EN" "http://www.w3.org/Graphics/SVG/1.1/DTD/svg11.dtd">
<svg width="100%" height="100%" viewBox="0 0 2370 628" version="1.1" xmlns="http://www.w3.org/2000/svg" xmlns:xlink="http://www.w3.org/1999/xlink" xml:space="preserve" xmlns:serif="http://www.serif.com/" style="fill-rule:evenodd;clip-rule:evenodd;stroke-linejoin:round;stroke-miterlimit:2;">
    <g transform="matrix(1,0,0,1,-67.9474,-163.553)">
        <g transform="matrix(1,0,0,0.192083,0,143.066)">
            <g id="BeautyTruth--Pacifico-" serif:id="BeautyTruth (Pacifico)" transform="matrix(1.49866,0,0,7.80211,-1413.5,-9848.31)">
                <g transform="matrix(300,0,0,300,982.516,1557.93)">
                    <path d="M0.868,-0.64C0.868,-0.583 0.848,-0.535 0.808,-0.494C0.768,-0.453 0.71,-0.423 0.633,-0.405C0.674,-0.394 0.706,-0.375 0.727,-0.349C0.748,-0.324 0.759,-0.294 0.759,-0.261C0.759,-0.208 0.743,-0.163 0.71,-0.124C0.677,-0.085 0.628,-0.056 0.565,-0.035C0.502,-0.014 0.425,-0.003 0.336,-0.003C0.303,-0.003 0.276,-0.004 0.256,-0.006C0.255,0.013 0.247,0.027 0.232,0.036C0.217,0.045 0.197,0.05 0.173,0.05C0.149,0.05 0.133,0.045 0.124,0.034C0.115,0.023 0.111,0.008 0.112,-0.013C0.118,-0.106 0.13,-0.204 0.147,-0.307C0.164,-0.409 0.186,-0.508 0.213,-0.603C0.218,-0.62 0.227,-0.631 0.241,-0.638C0.255,-0.645 0.273,-0.648 0.296,-0.648C0.337,-0.648 0.357,-0.637 0.357,-0.614C0.357,-0.605 0.355,-0.594 0.351,-0.582C0.334,-0.53 0.316,-0.46 0.299,-0.371C0.282,-0.281 0.269,-0.197 0.262,-0.116C0.294,-0.113 0.32,-0.112 0.34,-0.112C0.433,-0.112 0.502,-0.126 0.546,-0.153C0.589,-0.18 0.611,-0.214 0.611,-0.256C0.611,-0.285 0.599,-0.31 0.574,-0.33C0.549,-0.35 0.507,-0.361 0.448,-0.363C0.435,-0.364 0.425,-0.367 0.42,-0.373C0.415,-0.379 0.412,-0.389 0.412,-0.402C0.412,-0.421 0.416,-0.437 0.424,-0.449C0.432,-0.461 0.447,-0.467 0.468,-0.468C0.515,-0.469 0.558,-0.476 0.597,-0.489C0.635,-0.502 0.665,-0.52 0.687,-0.543C0.709,-0.566 0.72,-0.592 0.72,-0.623C0.72,-0.662 0.701,-0.692 0.663,-0.715C0.625,-0.737 0.567,-0.748 0.488,-0.748C0.417,-0.748 0.348,-0.739 0.281,-0.721C0.214,-0.702 0.158,-0.679 0.111,-0.651C0.09,-0.638 0.072,-0.632 0.057,-0.632C0.045,-0.632 0.036,-0.636 0.029,-0.645C0.023,-0.653 0.02,-0.663 0.02,-0.676C0.02,-0.693 0.024,-0.707 0.031,-0.719C0.038,-0.731 0.054,-0.745 0.081,-0.76C0.137,-0.792 0.203,-0.817 0.278,-0.835C0.353,-0.853 0.43,-0.862 0.509,-0.862C0.63,-0.862 0.72,-0.842 0.779,-0.801C0.838,-0.76 0.868,-0.707 0.868,-0.64Z" style="fill:rgb(100,161,157);fill-rule:nonzero;"/>
                </g>
                <g transform="matrix(300,0,0,300,1220.12,1557.93)">
                    <path d="M0.494,-0.223C0.503,-0.223 0.509,-0.219 0.515,-0.211C0.52,-0.203 0.522,-0.192 0.522,-0.178C0.522,-0.151 0.516,-0.131 0.503,-0.116C0.478,-0.086 0.444,-0.058 0.399,-0.033C0.354,-0.008 0.305,0.005 0.254,0.005C0.184,0.005 0.13,-0.014 0.091,-0.052C0.052,-0.09 0.033,-0.142 0.033,-0.208C0.033,-0.254 0.043,-0.297 0.062,-0.337C0.081,-0.376 0.108,-0.408 0.142,-0.431C0.177,-0.454 0.216,-0.466 0.259,-0.466C0.298,-0.466 0.329,-0.455 0.352,-0.432C0.375,-0.408 0.387,-0.377 0.387,-0.338C0.387,-0.292 0.371,-0.253 0.338,-0.22C0.305,-0.187 0.249,-0.16 0.17,-0.141C0.187,-0.11 0.218,-0.095 0.265,-0.095C0.295,-0.095 0.329,-0.106 0.368,-0.127C0.406,-0.148 0.439,-0.175 0.467,-0.209C0.475,-0.218 0.484,-0.223 0.494,-0.223ZM0.242,-0.368C0.217,-0.368 0.197,-0.354 0.18,-0.325C0.163,-0.296 0.154,-0.262 0.154,-0.221L0.154,-0.219C0.193,-0.228 0.224,-0.242 0.247,-0.261C0.27,-0.28 0.281,-0.301 0.281,-0.326C0.281,-0.339 0.278,-0.349 0.271,-0.357C0.264,-0.364 0.254,-0.368 0.242,-0.368Z" style="fill:rgb(100,161,157);fill-rule:nonzero;"/>
                </g>
                <g transform="matrix(300,0,0,300,1336.52,1557.93)">
                    <path d="M0.171,0.005C0.13,0.005 0.097,-0.01 0.072,-0.04C0.047,-0.07 0.035,-0.109 0.035,-0.158C0.035,-0.211 0.047,-0.262 0.072,-0.31C0.097,-0.357 0.13,-0.396 0.171,-0.425C0.212,-0.454 0.255,-0.468 0.301,-0.468C0.316,-0.468 0.326,-0.465 0.331,-0.46C0.336,-0.454 0.34,-0.444 0.343,-0.429C0.357,-0.432 0.372,-0.433 0.387,-0.433C0.42,-0.433 0.436,-0.421 0.436,-0.398C0.436,-0.384 0.431,-0.351 0.421,-0.298C0.406,-0.221 0.398,-0.168 0.398,-0.138C0.398,-0.128 0.401,-0.12 0.406,-0.114C0.41,-0.108 0.417,-0.105 0.425,-0.105C0.438,-0.105 0.453,-0.113 0.471,-0.13C0.489,-0.146 0.513,-0.172 0.544,-0.209C0.552,-0.218 0.561,-0.223 0.571,-0.223C0.58,-0.223 0.587,-0.219 0.592,-0.211C0.597,-0.203 0.599,-0.192 0.599,-0.178C0.599,-0.151 0.593,-0.131 0.58,-0.116C0.553,-0.082 0.524,-0.053 0.493,-0.03C0.462,-0.007 0.433,0.005 0.404,0.005C0.382,0.005 0.362,-0.003 0.344,-0.018C0.325,-0.033 0.311,-0.053 0.302,-0.079C0.267,-0.023 0.224,0.005 0.171,0.005ZM0.207,-0.096C0.222,-0.096 0.236,-0.105 0.249,-0.122C0.262,-0.139 0.272,-0.162 0.278,-0.191L0.315,-0.375C0.287,-0.374 0.261,-0.364 0.237,-0.344C0.214,-0.323 0.195,-0.296 0.181,-0.263C0.167,-0.23 0.16,-0.194 0.16,-0.157C0.16,-0.136 0.164,-0.121 0.172,-0.111C0.181,-0.101 0.192,-0.096 0.207,-0.096Z" style="fill:rgb(100,161,157);fill-rule:nonzero;"/>
                </g>
                <g transform="matrix(300,0,0,300,1477.52,1557.93)">
                    <path d="M0.15,0.005C0.12,0.005 0.096,-0.009 0.077,-0.037C0.058,-0.064 0.048,-0.099 0.048,-0.14C0.048,-0.19 0.051,-0.236 0.058,-0.278C0.065,-0.319 0.076,-0.363 0.091,-0.41C0.098,-0.43 0.107,-0.444 0.119,-0.453C0.131,-0.462 0.15,-0.466 0.176,-0.466C0.191,-0.466 0.201,-0.464 0.206,-0.459C0.212,-0.454 0.215,-0.447 0.215,-0.438C0.215,-0.433 0.211,-0.415 0.204,-0.384C0.197,-0.359 0.192,-0.337 0.188,-0.317C0.175,-0.247 0.168,-0.2 0.168,-0.177C0.168,-0.163 0.17,-0.153 0.173,-0.148C0.176,-0.142 0.182,-0.139 0.189,-0.139C0.199,-0.139 0.212,-0.149 0.227,-0.169C0.242,-0.189 0.258,-0.219 0.275,-0.26C0.292,-0.301 0.308,-0.351 0.324,-0.41C0.329,-0.43 0.338,-0.444 0.348,-0.453C0.36,-0.462 0.376,-0.466 0.398,-0.466C0.413,-0.466 0.424,-0.464 0.43,-0.461C0.436,-0.457 0.439,-0.45 0.439,-0.44C0.439,-0.423 0.431,-0.378 0.414,-0.303C0.395,-0.218 0.386,-0.165 0.386,-0.145C0.386,-0.132 0.389,-0.123 0.394,-0.116C0.399,-0.109 0.406,-0.105 0.415,-0.105C0.428,-0.105 0.444,-0.113 0.463,-0.13C0.481,-0.146 0.505,-0.172 0.536,-0.209C0.544,-0.218 0.553,-0.223 0.563,-0.223C0.572,-0.223 0.579,-0.219 0.584,-0.211C0.589,-0.203 0.591,-0.192 0.591,-0.178C0.591,-0.151 0.585,-0.131 0.572,-0.116C0.543,-0.081 0.513,-0.052 0.48,-0.029C0.447,-0.006 0.409,0.005 0.367,0.005C0.335,0.005 0.312,-0.007 0.297,-0.032C0.281,-0.057 0.274,-0.091 0.274,-0.136C0.263,-0.091 0.246,-0.056 0.223,-0.032C0.2,-0.007 0.176,0.005 0.15,0.005Z" style="fill:rgb(100,161,157);fill-rule:nonzero;"/>
                </g>
                <g transform="matrix(300,0,0,300,1616.12,1557.93)">
                    <path d="M0.494,-0.223C0.503,-0.223 0.509,-0.219 0.515,-0.211C0.52,-0.203 0.522,-0.192 0.522,-0.178C0.522,-0.151 0.516,-0.131 0.503,-0.116C0.474,-0.081 0.443,-0.052 0.409,-0.029C0.375,-0.006 0.336,0.005 0.292,0.005C0.156,0.005 0.088,-0.091 0.088,-0.282C0.088,-0.311 0.089,-0.341 0.091,-0.371L0.052,-0.371C0.032,-0.371 0.019,-0.375 0.012,-0.382C0.005,-0.389 0.001,-0.401 0.001,-0.417C0.001,-0.454 0.016,-0.473 0.046,-0.473L0.103,-0.473C0.114,-0.546 0.132,-0.613 0.155,-0.674C0.178,-0.735 0.206,-0.783 0.239,-0.819C0.273,-0.855 0.308,-0.873 0.346,-0.873C0.374,-0.873 0.396,-0.861 0.412,-0.836C0.428,-0.811 0.436,-0.78 0.436,-0.743C0.436,-0.64 0.393,-0.55 0.306,-0.473L0.418,-0.473C0.429,-0.473 0.436,-0.471 0.441,-0.466C0.446,-0.461 0.448,-0.453 0.448,-0.44C0.448,-0.394 0.41,-0.371 0.335,-0.371L0.213,-0.371C0.212,-0.338 0.211,-0.312 0.211,-0.293C0.211,-0.224 0.219,-0.175 0.235,-0.147C0.252,-0.119 0.278,-0.105 0.313,-0.105C0.342,-0.105 0.367,-0.114 0.389,-0.131C0.411,-0.148 0.437,-0.174 0.467,-0.209C0.475,-0.218 0.484,-0.223 0.494,-0.223ZM0.319,-0.777C0.309,-0.777 0.298,-0.764 0.285,-0.74C0.273,-0.715 0.262,-0.68 0.251,-0.635C0.239,-0.591 0.23,-0.542 0.223,-0.488C0.262,-0.522 0.292,-0.56 0.312,-0.603C0.331,-0.645 0.341,-0.683 0.341,-0.718C0.341,-0.757 0.334,-0.777 0.319,-0.777Z" style="fill:rgb(100,161,157);fill-rule:nonzero;"/>
                </g>
                <g transform="matrix(300,0,0,300,1734.02,1557.93)">
                    <path d="M0.582,-0.253C0.588,-0.258 0.612,-0.287 0.623,-0.362C0.626,-0.383 0.684,-0.372 0.696,-0.378C0.707,-0.384 0.706,-0.387 0.708,-0.381C0.71,-0.374 0.722,-0.349 0.722,-0.317C0.722,-0.294 0.711,-0.266 0.7,-0.246C0.677,-0.204 0.624,-0.167 0.613,-0.157C0.605,-0.151 0.569,-0.125 0.559,-0.118L0.367,0.011C0.342,0.149 0.309,0.257 0.268,0.336C0.227,0.415 0.174,0.455 0.111,0.455C0.077,0.455 0.049,0.444 0.028,0.423C0.007,0.402 -0.004,0.375 -0.004,0.341C-0.004,0.31 0.003,0.278 0.018,0.245C0.032,0.212 0.059,0.175 0.098,0.132C0.137,0.09 0.192,0.042 0.263,-0.013L0.266,-0.036C0.271,-0.061 0.276,-0.096 0.282,-0.142C0.269,-0.094 0.25,-0.058 0.226,-0.033C0.202,-0.008 0.177,0.005 0.15,0.005C0.12,0.005 0.096,-0.009 0.077,-0.037C0.058,-0.064 0.048,-0.099 0.048,-0.14C0.048,-0.19 0.051,-0.236 0.058,-0.278C0.065,-0.319 0.076,-0.363 0.091,-0.41C0.098,-0.43 0.107,-0.444 0.119,-0.453C0.131,-0.462 0.15,-0.466 0.176,-0.466C0.191,-0.466 0.201,-0.464 0.206,-0.459C0.212,-0.454 0.215,-0.447 0.215,-0.438C0.215,-0.433 0.211,-0.415 0.204,-0.384C0.197,-0.359 0.192,-0.337 0.188,-0.317C0.183,-0.29 0.178,-0.264 0.174,-0.238C0.17,-0.214 0.168,-0.193 0.168,-0.177C0.168,-0.152 0.175,-0.139 0.189,-0.139C0.199,-0.139 0.212,-0.149 0.227,-0.169C0.242,-0.189 0.258,-0.219 0.275,-0.26C0.292,-0.301 0.308,-0.351 0.324,-0.41C0.329,-0.43 0.338,-0.444 0.348,-0.453C0.36,-0.462 0.376,-0.466 0.398,-0.466C0.413,-0.466 0.424,-0.464 0.43,-0.46C0.436,-0.456 0.439,-0.449 0.439,-0.44C0.439,-0.423 0.43,-0.366 0.413,-0.268L0.387,-0.107C0.438,-0.146 0.486,-0.18 0.534,-0.212C0.543,-0.217 0.576,-0.25 0.582,-0.253ZM0.122,0.358C0.139,0.358 0.157,0.339 0.178,0.3C0.199,0.261 0.219,0.197 0.24,0.107C0.189,0.15 0.152,0.19 0.129,0.225C0.106,0.261 0.094,0.292 0.094,0.319C0.094,0.33 0.096,0.34 0.101,0.347C0.105,0.354 0.112,0.358 0.122,0.358Z" style="fill:rgb(100,161,157);fill-rule:nonzero;"/>
                </g>
                <g transform="matrix(300,0,0,300,1877.72,1557.93)">
                    <path d="M0.841,-0.83C0.862,-0.826 0.877,-0.819 0.887,-0.809C0.898,-0.799 0.903,-0.787 0.903,-0.774C0.903,-0.752 0.897,-0.736 0.884,-0.726C0.872,-0.716 0.853,-0.712 0.826,-0.714C0.766,-0.719 0.719,-0.722 0.686,-0.724C0.652,-0.725 0.608,-0.726 0.553,-0.727C0.528,-0.604 0.506,-0.481 0.485,-0.357C0.478,-0.312 0.47,-0.259 0.462,-0.2C0.454,-0.14 0.449,-0.092 0.446,-0.055C0.445,-0.036 0.437,-0.021 0.422,-0.011C0.407,0 0.39,0.005 0.369,0.005C0.347,0.005 0.33,0 0.318,-0.011C0.306,-0.022 0.3,-0.036 0.3,-0.053C0.3,-0.069 0.303,-0.096 0.308,-0.133C0.313,-0.17 0.318,-0.208 0.325,-0.249C0.332,-0.29 0.338,-0.325 0.342,-0.355C0.349,-0.406 0.358,-0.456 0.367,-0.506C0.376,-0.556 0.386,-0.603 0.395,-0.648C0.397,-0.658 0.399,-0.67 0.402,-0.683C0.405,-0.696 0.408,-0.71 0.411,-0.726C0.346,-0.724 0.294,-0.719 0.257,-0.71C0.22,-0.701 0.193,-0.689 0.178,-0.674C0.162,-0.658 0.158,-0.639 0.158,-0.614C0.158,-0.601 0.16,-0.583 0.164,-0.567C0.167,-0.556 0.189,-0.488 0.194,-0.478C0.198,-0.47 0.204,-0.452 0.211,-0.433C0.217,-0.418 0.221,-0.405 0.229,-0.381C0.24,-0.35 0.242,-0.322 0.241,-0.318C0.236,-0.3 0.048,-0.206 0.075,-0.226C0.077,-0.227 0.088,-0.236 0.092,-0.241C0.098,-0.25 0.109,-0.262 0.115,-0.269C0.129,-0.288 0.13,-0.324 0.128,-0.34C0.126,-0.354 0.12,-0.367 0.117,-0.382C0.111,-0.405 0.106,-0.415 0.101,-0.428C0.095,-0.445 0.067,-0.517 0.058,-0.538C0.049,-0.559 0.045,-0.584 0.045,-0.61C0.045,-0.667 0.054,-0.713 0.091,-0.748C0.128,-0.782 0.184,-0.807 0.26,-0.823C0.335,-0.839 0.432,-0.847 0.551,-0.847C0.624,-0.847 0.683,-0.846 0.727,-0.843C0.77,-0.84 0.808,-0.836 0.841,-0.83Z" style="fill:rgb(100,161,157);fill-rule:nonzero;"/>
                </g>
                <g transform="matrix(300,0,0,300,2036.45,1557.93)">
                    <path d="M0.119,0.005C0.094,0.005 0.076,-0.008 0.066,-0.035C0.055,-0.062 0.05,-0.104 0.05,-0.163C0.05,-0.25 0.062,-0.332 0.087,-0.41C0.093,-0.429 0.103,-0.444 0.117,-0.453C0.13,-0.462 0.149,-0.466 0.174,-0.466C0.187,-0.466 0.197,-0.464 0.202,-0.461C0.207,-0.458 0.21,-0.451 0.21,-0.442C0.21,-0.431 0.205,-0.407 0.195,-0.37C0.188,-0.343 0.183,-0.32 0.179,-0.3C0.175,-0.28 0.172,-0.255 0.169,-0.226C0.191,-0.283 0.216,-0.33 0.243,-0.366C0.27,-0.402 0.297,-0.428 0.324,-0.443C0.35,-0.458 0.374,-0.466 0.396,-0.466C0.439,-0.466 0.461,-0.444 0.461,-0.401C0.461,-0.392 0.458,-0.371 0.452,-0.338C0.447,-0.311 0.444,-0.295 0.444,-0.288C0.444,-0.265 0.452,-0.253 0.469,-0.253C0.488,-0.253 0.512,-0.268 0.541,-0.297C0.55,-0.306 0.559,-0.31 0.568,-0.31C0.577,-0.31 0.584,-0.306 0.589,-0.299C0.594,-0.291 0.596,-0.281 0.596,-0.268C0.596,-0.243 0.589,-0.224 0.576,-0.21C0.557,-0.191 0.536,-0.174 0.51,-0.161C0.486,-0.147 0.459,-0.14 0.431,-0.14C0.396,-0.14 0.369,-0.149 0.35,-0.167C0.332,-0.185 0.323,-0.209 0.323,-0.24C0.323,-0.25 0.324,-0.26 0.326,-0.27C0.327,-0.283 0.328,-0.292 0.328,-0.297C0.328,-0.308 0.324,-0.313 0.317,-0.313C0.307,-0.313 0.294,-0.302 0.278,-0.28C0.261,-0.257 0.245,-0.228 0.229,-0.191C0.213,-0.154 0.2,-0.116 0.19,-0.075C0.183,-0.044 0.174,-0.023 0.165,-0.012C0.155,-0.001 0.14,0.005 0.119,0.005Z" style="fill:rgb(100,161,157);fill-rule:nonzero;"/>
                </g>
                <g transform="matrix(300,0,0,300,2172.95,1557.93)">
                    <path d="M0.15,0.005C0.12,0.005 0.096,-0.009 0.077,-0.037C0.058,-0.064 0.048,-0.099 0.048,-0.14C0.048,-0.19 0.051,-0.236 0.058,-0.278C0.065,-0.319 0.076,-0.363 0.091,-0.41C0.098,-0.43 0.107,-0.444 0.119,-0.453C0.131,-0.462 0.15,-0.466 0.176,-0.466C0.191,-0.466 0.201,-0.464 0.206,-0.459C0.212,-0.454 0.215,-0.447 0.215,-0.438C0.215,-0.433 0.211,-0.415 0.204,-0.384C0.197,-0.359 0.192,-0.337 0.188,-0.317C0.175,-0.247 0.168,-0.2 0.168,-0.177C0.168,-0.163 0.17,-0.153 0.173,-0.148C0.176,-0.142 0.182,-0.139 0.189,-0.139C0.199,-0.139 0.212,-0.149 0.227,-0.169C0.242,-0.189 0.258,-0.219 0.275,-0.26C0.292,-0.301 0.308,-0.351 0.324,-0.41C0.329,-0.43 0.338,-0.444 0.348,-0.453C0.36,-0.462 0.376,-0.466 0.398,-0.466C0.413,-0.466 0.424,-0.464 0.43,-0.461C0.436,-0.457 0.439,-0.45 0.439,-0.44C0.439,-0.423 0.431,-0.378 0.414,-0.303C0.395,-0.218 0.386,-0.165 0.386,-0.145C0.386,-0.132 0.389,-0.123 0.394,-0.116C0.399,-0.109 0.406,-0.105 0.415,-0.105C0.428,-0.105 0.444,-0.113 0.463,-0.13C0.481,-0.146 0.505,-0.172 0.536,-0.209C0.544,-0.218 0.553,-0.223 0.563,-0.223C0.572,-0.223 0.579,-0.219 0.584,-0.211C0.589,-0.203 0.591,-0.192 0.591,-0.178C0.591,-0.151 0.585,-0.131 0.572,-0.116C0.543,-0.081 0.513,-0.052 0.48,-0.029C0.447,-0.006 0.409,0.005 0.367,0.005C0.335,0.005 0.312,-0.007 0.297,-0.032C0.281,-0.057 0.274,-0.091 0.274,-0.136C0.263,-0.091 0.246,-0.056 0.223,-0.032C0.2,-0.007 0.176,0.005 0.15,0.005Z" style="fill:rgb(100,161,157);fill-rule:nonzero;"/>
                </g>
                <g transform="matrix(300,0,0,300,2311.55,1557.93)">
                    <path d="M0.494,-0.223C0.503,-0.223 0.509,-0.219 0.515,-0.211C0.52,-0.203 0.522,-0.192 0.522,-0.178C0.522,-0.151 0.516,-0.131 0.503,-0.116C0.474,-0.081 0.443,-0.052 0.409,-0.029C0.375,-0.006 0.336,0.005 0.292,0.005C0.156,0.005 0.088,-0.091 0.088,-0.282C0.088,-0.311 0.089,-0.341 0.091,-0.371L0.052,-0.371C0.032,-0.371 0.019,-0.375 0.012,-0.382C0.005,-0.389 0.001,-0.401 0.001,-0.417C0.001,-0.454 0.016,-0.473 0.046,-0.473L0.103,-0.473C0.114,-0.546 0.132,-0.613 0.155,-0.674C0.178,-0.735 0.206,-0.783 0.239,-0.819C0.273,-0.855 0.308,-0.873 0.346,-0.873C0.374,-0.873 0.396,-0.861 0.412,-0.836C0.428,-0.811 0.436,-0.78 0.436,-0.743C0.436,-0.64 0.393,-0.55 0.306,-0.473L0.418,-0.473C0.429,-0.473 0.436,-0.471 0.441,-0.466C0.446,-0.461 0.448,-0.453 0.448,-0.44C0.448,-0.394 0.41,-0.371 0.335,-0.371L0.213,-0.371C0.212,-0.338 0.211,-0.312 0.211,-0.293C0.211,-0.224 0.219,-0.175 0.235,-0.147C0.252,-0.119 0.278,-0.105 0.313,-0.105C0.342,-0.105 0.367,-0.114 0.389,-0.131C0.411,-0.148 0.437,-0.174 0.467,-0.209C0.475,-0.218 0.484,-0.223 0.494,-0.223ZM0.319,-0.777C0.309,-0.777 0.298,-0.764 0.285,-0.74C0.273,-0.715 0.262,-0.68 0.251,-0.635C0.239,-0.591 0.23,-0.542 0.223,-0.488C0.262,-0.522 0.292,-0.56 0.312,-0.603C0.331,-0.645 0.341,-0.683 0.341,-0.718C0.341,-0.757 0.334,-0.777 0.319,-0.777Z" style="fill:rgb(100,161,157);fill-rule:nonzero;"/>
                </g>
                <g transform="matrix(300,0,0,300,2429.45,1557.93)">
                    <path d="M0.402,-0.466C0.423,-0.466 0.44,-0.461 0.451,-0.45C0.462,-0.439 0.467,-0.422 0.467,-0.401C0.467,-0.384 0.463,-0.351 0.456,-0.303C0.449,-0.262 0.444,-0.224 0.44,-0.188C0.436,-0.151 0.434,-0.111 0.434,-0.066C0.434,-0.041 0.429,-0.023 0.419,-0.012C0.408,-0.001 0.391,0.005 0.368,0.005C0.346,0.005 0.33,-0.001 0.32,-0.012C0.31,-0.023 0.305,-0.04 0.305,-0.063C0.305,-0.09 0.31,-0.134 0.319,-0.195C0.327,-0.248 0.331,-0.282 0.331,-0.297C0.331,-0.308 0.327,-0.313 0.32,-0.313C0.311,-0.313 0.299,-0.302 0.283,-0.28C0.267,-0.257 0.251,-0.228 0.235,-0.191C0.219,-0.154 0.206,-0.116 0.196,-0.075C0.189,-0.044 0.18,-0.023 0.171,-0.012C0.161,-0.001 0.146,0.005 0.125,0.005C0.104,0.005 0.089,-0.003 0.08,-0.018C0.07,-0.033 0.063,-0.056 0.06,-0.087C0.057,-0.118 0.055,-0.164 0.055,-0.225C0.055,-0.328 0.066,-0.435 0.086,-0.546C0.108,-0.657 0.139,-0.751 0.18,-0.827C0.221,-0.902 0.27,-0.94 0.327,-0.94C0.358,-0.94 0.383,-0.927 0.402,-0.901C0.421,-0.874 0.43,-0.84 0.43,-0.798C0.43,-0.731 0.41,-0.661 0.371,-0.589C0.332,-0.516 0.268,-0.432 0.179,-0.335C0.177,-0.3 0.176,-0.265 0.176,-0.228C0.198,-0.285 0.223,-0.331 0.25,-0.367C0.277,-0.402 0.303,-0.428 0.33,-0.443C0.356,-0.458 0.38,-0.466 0.402,-0.466ZM0.306,-0.841C0.294,-0.841 0.281,-0.824 0.266,-0.79C0.251,-0.755 0.237,-0.709 0.224,-0.651C0.21,-0.592 0.199,-0.529 0.19,-0.46C0.231,-0.509 0.266,-0.562 0.293,-0.619C0.32,-0.676 0.333,-0.728 0.333,-0.775C0.333,-0.796 0.331,-0.813 0.326,-0.824C0.321,-0.835 0.315,-0.841 0.306,-0.841Z" style="fill:rgb(100,161,157);fill-rule:nonzero;"/>
                </g>
            </g>
        </g>
    </g>
</svg>
